<svg data-v-0dd9719b="" version="1.0" xmlns="http://www.w3.org/2000/svg" xmlns:xlink="http://www.w3.org/1999/xlink" width="100%" height="100%" viewBox="0 0 340.000000 250.000000" preserveAspectRatio="xMidYMid meet" color-interpolation-filters="sRGB" style="margin: auto;"> <rect data-v-0dd9719b="" x="0" y="0" width="100%" height="100%" fill="#ffffff" fill-opacity="1" class="background"></rect> <rect data-v-0dd9719b="" x="0" y="0" width="100%" height="100%" fill="url(#watermark)" fill-opacity="1" class="watermarklayer"></rect> <g data-v-0dd9719b="" fill="#ef3e43" class="icon-text-wrapper icon-svg-group iconsvg" transform="translate(49.029998779296875,95)"><g class="iconsvg-imagesvg" transform="translate(0,0)"><g><rect fill="#ef3e43" fill-opacity="0" stroke-width="2" x="0" y="0" width="60" height="60" class="image-rect"></rect> <svg filter="url(#colors3711359375)" x="0" y="0" width="60" height="60" filtersec="colorsf6816709922" class="image-svg-svg primary" style="overflow: visible;"><svg xmlns="http://www.w3.org/2000/svg" viewBox="0 0 105.00001 105.00001"><path d="M52.5 52.5c-12.1 7-27.5 2.8-34.5-9.2-7-12.1-2.8-27.5 9.2-34.5l4.3 4.3M14.7 28.8l-5.9-1.6C1.8 39.3 6 54.7 18 61.7c12.1 7 27.5 2.8 34.5-9.2M7.9 50.9L2 52.5c0 13.9 11.3 25.2 25.2 25.2s25.2-11.3 25.2-25.2M13.1 73.4l-4.3 4.3c7 12.1 22.4 16.2 34.5 9.2 12.1-7 16.2-22.4 9.2-34.5M28.8 90.3l-1.6 5.9c12.1 7 27.5 2.8 34.5-9.2 7-12.1 2.8-27.5-9.2-34.5m-1.6 44.6l1.6 5.9c13.9 0 25.2-11.3 25.2-25.2S66.4 52.5 52.5 52.5m20.9 39.4l4.3 4.3c12.1-7 16.2-22.4 9.2-34.5-7-12.1-22.4-16.2-34.5-9.2m37.9 23.7l5.9 1.6c7-12.1 2.8-27.5-9.2-34.5-12.1-7-27.5-2.8-34.5 9.2m44.6 1.6l5.9-1.6c0-13.9-11.3-25.2-25.2-25.2S52.5 38.6 52.5 52.5m39.4-20.9l4.3-4.3C89.3 15.2 73.8 11 61.7 18c-12.1 7-16.2 22.4-9.2 34.5m23.7-37.8l1.6-5.9C65.7 1.8 50.3 6 43.3 18c-7 12.1-2.8 27.5 9.2 34.5m1.6-44.6L52.5 2C38.6 2 27.2 13.3 27.2 27.2s11.3 25.2 25.2 25.2" fill="none" stroke="#333" stroke-width="4" stroke-miterlimit="10"></path></svg></svg> <defs><filter id="colors3711359375"><feColorMatrix type="matrix" values="0 0 0 0 0.60546875  0 0 0 0 0.0390625  0 0 0 0 0.546875  0 0 0 1 0" class="icon-fecolormatrix"></feColorMatrix></filter> <filter id="colorsf6816709922"><feColorMatrix type="matrix" values="0 0 0 0 0.99609375  0 0 0 0 0.99609375  0 0 0 0 0.99609375  0 0 0 1 0" class="icon-fecolormatrix"></feColorMatrix></filter> <filter id="colorsb3602000091"><feColorMatrix type="matrix" values="0 0 0 0 0  0 0 0 0 0  0 0 0 0 0  0 0 0 1 0" class="icon-fecolormatrix"></feColorMatrix></filter></defs></g></g> <g transform="translate(67,6.138750076293945)"><g data-gra="path-name" fill-rule="" class="tp-name iconsvg-namesvg" transform="translate(0,0)"><g transform="scale(1)"><g><path d="M34.17-27.28L34.17-27.28 34.17-24.05Q33.05-24.33 28.97-24.33L28.97-24.33 22.92-24.33 22.92-18.84 26.86-18.84Q30.38-18.84 31.36-19.13L31.36-19.13Q31.36-19.13 31.36-18.84L31.36-18.84Q31.08-17.16 31.08-15.05L31.08-15.05 31.08-1.97Q31.08-0.7 31.36 2.67L31.36 2.67 27.98 2.67Q27.98 3.09 28.13 1.27L28.13 1.27Q28.13 0.42 28.13-0.28L28.13-0.28 8.16-0.28Q8.16 1.27 8.3 2.67L8.3 2.67 5.2 2.67Q5.34 1.83 5.34-1.55L5.34-1.55 5.34-15.33Q5.34-17.02 5.2-18.7L5.2-18.7Q5.2-18.98 5.2-19.13L5.2-19.13Q6.75-18.84 8.86-18.84L8.86-18.84 13.22-18.84 13.22-24.33 7.45-24.33Q3.8-24.33 2.25-24.05L2.25-24.05 2.25-27.28Q4.36-26.86 7.31-26.86L7.31-26.86 28.83-26.86Q32.34-26.86 34.17-27.28ZM20.11-18.84L20.11-24.33 16.03-24.33 16.03-18.84 20.11-18.84ZM28.27-2.81L28.27-16.31 22.92-16.31 22.92-10.69Q22.78-8.58 27.28-10.41L27.28-10.41Q27.14-9.7 27.14-8.72L27.14-8.72Q27.14-7.73 27.14-7.03L27.14-7.03Q18.98-5.63 20.11-9.98L20.11-9.98 20.11-16.31 15.89-16.31Q15.61-9.7 11.11-5.63L11.11-5.63Q9.84-6.89 8.44-7.73L8.44-7.73Q13.36-10.13 13.22-16.31L13.22-16.31 8.16-16.31 8.16-2.81 28.27-2.81ZM51.75-28.13L55.27-28.83Q55.97-27.56 56.53-24.47L56.53-24.47 64.83-24.47Q67.78-24.47 68.2-24.61L68.2-24.61Q68.2-24.33 68.2-23.63L68.2-23.63Q68.06-22.08 68.06-21.09L68.06-21.09Q68.06-19.55 68.34-18L68.34-18Q68.34-17.72 68.34-17.58L68.34-17.58 64.69-17.58Q64.97-19.27 64.97-21.94L64.97-21.94 43.03-21.94Q43.03-18.56 43.31-17.58L43.31-17.58 39.8-17.58Q39.8-17.72 39.8-18.14L39.8-18.14Q40.08-19.69 40.08-21.23L40.08-21.23Q40.08-23.91 39.8-24.75L39.8-24.75Q42.19-24.47 43.88-24.47L43.88-24.47 53.3-24.47Q53.3-24.33 53.16-24.89L53.16-24.89Q52.45-26.72 51.75-28.13L51.75-28.13ZM51.89-20.25L51.89-20.25Q55.55-19.41 55.55-18.98L55.55-18.98Q55.55-18.84 55.13-18.56L55.13-18.56Q54.7-18.14 54.42-17.72L54.42-17.72Q53.44-16.31 52.17-14.2L52.17-14.2 64.55-14.2Q68.34-14.2 69.75-14.48L69.75-14.48 69.75-11.25Q68.48-11.53 64.69-11.53L64.69-11.53 62.16-11.53Q60.61-7.03 58.64-4.36L58.64-4.36Q64.13-2.25 68.63 0L68.63 0 65.81 2.81Q62.16-0.14 56.67-2.25L56.67-2.25Q51.33 1.55 41.2 3.23L41.2 3.23Q40.64 1.69 38.81 0L38.81 0Q48.52-0.42 53.86-3.52L53.86-3.52Q53.16-3.8 52.17-4.08L52.17-4.08Q48.09-5.63 44.3-6.33L44.3-6.33Q46.83-9.98 47.67-11.53L47.67-11.53 43.17-11.53Q40.36-11.67 38.25-11.25L38.25-11.25 38.25-14.48Q39.52-14.2 43.17-14.2L43.17-14.2 49.08-14.2Q49.08-14.34 49.22-14.48L49.22-14.48Q51.19-18 51.89-20.25ZM59.2-11.53L59.2-11.53 50.91-11.53 48.38-7.73Q52.73-6.61 55.83-5.48L55.83-5.48Q57.94-8.02 59.2-11.53ZM90.56-23.48L90.56-26.86Q91.83-26.44 95.34-26.44L95.34-26.44 99.28-26.44Q100.27-26.44 102.8-26.72L102.8-26.72Q103.5-26.86 103.78-26.86L103.78-26.86Q103.22-24.75 103.22-22.08L103.22-22.08 103.22-1.69Q104.34 2.53 96.47 2.81L96.47 2.81Q96.47 0.56 95.48-0.98L95.48-0.98Q100.97 0.14 100.41-3.23L100.41-3.23 100.41-10.55 91.27-5.2Q90.84-6.89 89.44-8.44L89.44-8.44Q94.78-10.13 100.41-13.5L100.41-13.5 100.41-23.91 95.2-23.91Q91.97-23.91 90.56-23.48L90.56-23.48ZM75.94-23.34L75.94-26.72Q77.77-26.44 80.86-26.44L80.86-26.44 84.23-26.44Q86.48-26.44 88.73-26.58L88.73-26.58Q88.73-26.58 88.73-26.3L88.73-26.3Q88.45-24.75 88.45-22.5L88.45-22.5 88.45-0.7Q89.02 1.27 81.84 2.39L81.84 2.39Q81.98 0.28 80.58-1.13L80.58-1.13Q86.06-0.7 85.64-3.38L85.64-3.38 85.64-9.84Q84.52-9 81.42-7.17L81.42-7.17Q77.77-5.06 76.36-4.08L76.36-4.08Q75.52-6.33 74.53-7.73L74.53-7.73Q79.59-9.28 85.64-12.52L85.64-12.52 85.64-23.77 80.86-23.77Q78.05-23.77 75.94-23.34L75.94-23.34ZM91.55-20.67L94.64-21.52Q95.77-18.98 96.89-14.77L96.89-14.77 93.52-13.78Q93.23-17.3 91.55-20.67L91.55-20.67ZM77.34-20.11L80.3-21.38Q81.7-18.28 82.55-14.48L82.55-14.48 79.17-13.36Q78.89-17.02 77.34-20.11L77.34-20.11ZM133.88-25.17L118.27-25.17 118.27-22.64 133.88-22.64 133.88-25.17ZM133.88-17.58L133.88-20.11 118.27-20.11 118.27-17.58 133.88-17.58ZM137.25-28.13L137.25-28.13Q136.97-26.86 136.97-21.52L136.97-21.52Q136.97-17.44 137.25-14.91L137.25-14.91Q137.25-15.05 132.89-15.05L132.89-15.05 123.61-15.05Q122.63-13.64 121.08-12.23L121.08-12.23 134.44-12.23Q138.23-12.09 140.06-12.66L140.06-12.66Q139.78-10.83 139.36-6.61L139.36-6.61Q138.8 0.28 137.95 0.84L137.95 0.84Q136.55 2.25 131.2 3.09L131.2 3.09Q131.06 0.84 129.38-0.42L129.38-0.42Q134.44 0.14 135.42-1.55L135.42-1.55Q136.55-3.8 136.55-9.84L136.55-9.84 132.89-9.84Q129.23 0 116.16 3.94L116.16 3.94Q115.88 3.52 115.31 2.81L115.31 2.81Q114.47 1.69 113.63 1.13L113.63 1.13Q125.72-0.84 130.08-9.84L130.08-9.84 126.14-9.84Q121.78-4.08 113.2-0.7L113.2-0.7Q112.5-2.25 110.95-3.38L110.95-3.38Q118.27-4.64 122.91-9.84L122.91-9.84 118.13-9.84Q114.61-7.17 112.08-6.19L112.08-6.19Q110.95-7.88 109.55-8.58L109.55-8.58Q115.73-9.98 120.38-14.91L120.38-14.91Q117.84-15.05 115.03-14.77L115.03-14.77Q115.45-17.16 115.45-20.95L115.45-20.95Q115.45-25.88 115.03-27.98L115.03-27.98Q117.56-27.84 120.09-27.84L120.09-27.84 132.33-27.84Q135.56-27.7 137.25-28.13ZM160.31-28.83L160.31-28.83Q160.59-28.83 161.16-28.83L161.16-28.83Q164.25-28.69 163.97-28.27L163.97-28.27Q163.97-28.13 163.83-27.7L163.83-27.7Q163.41-27 163.41-25.88L163.41-25.88 163.41-23.2 169.17-23.2Q174.09-23.2 175.92-23.34L175.92-23.34 175.92-20.25Q174.52-20.39 169.17-20.39L169.17-20.39 163.41-20.39 163.41-15.61 168.19-15.61Q171.84-15.61 174.23-15.75L174.23-15.75 174.23-12.66Q172.27-12.94 168.05-12.94L168.05-12.94 163.41-12.94 163.41-8.02 170.16-8.02Q175.08-8.02 177.19-8.16L177.19-8.16 177.19-5.06Q174.8-5.34 170.3-5.34L170.3-5.34 163.41-5.34Q163.41 0.14 163.69 3.38L163.69 3.38 160.17 3.38Q160.59 2.39 160.59-5.34L160.59-5.34 153.28-5.34Q150.33-5.34 146.95-5.06L146.95-5.06 146.95-8.3Q149.06-8.02 153.28-8.02L153.28-8.02 160.59-8.02 160.59-12.94 156.23-12.94Q154.55-12.94 152.3-12.8L152.3-12.8Q151.03-12.8 150.33-12.8L150.33-12.8 150.33-15.75Q151.45-15.61 156.23-15.61L156.23-15.61 160.59-15.61 160.59-20.39 156.09-20.39Q150.05-20.39 148.36-20.25L148.36-20.25 148.36-23.48Q152.72-23.2 156.23-23.2L156.23-23.2 160.59-23.2 160.59-26.3Q160.59-28.13 160.31-28.83Z" transform="translate(-2.25, 28.829999923706055)"></path></g> <!----> <!----> <!----> <!----> <!----> <!----> <!----></g></g> <g data-gra="path-slogan" fill-rule="" class="tp-slogan iconsvg-slogansvg" fill="#ef3e43" transform="translate(5,38.77000045776367)"><rect x="0" height="1" y="3.9750003814697266" width="32.755001068115234"></rect> <rect height="1" y="3.9750003814697266" width="32.755001068115234" x="132.18500137329102"></rect> <g transform="translate(35.755001068115234,0)"><g transform="scale(1)"><path d="M7.64-8.58L4.73-4.41L7.78 0L6.33 0L3.98-3.52L1.64 0L0.23 0L3.33-4.41L0.42-8.58L1.88-8.58L4.03-5.30L6.23-8.58L7.64-8.58ZM9.05-8.58L10.22-8.58L10.22 0L9.05 0L9.05-8.58ZM12.89-5.53L12-5.53L12-8.58L12.89-8.58L12.89-5.53ZM20.11 0L19.27-2.48L15.80-2.48L14.91 0L13.73 0L16.97-8.58L18.28-8.58L21.38 0L20.11 0ZM17.53-7.31L16.17-3.52L18.84-3.52L17.58-7.31L17.53-7.31ZM23.81-8.58L28.13-1.64L28.13-8.58L29.25-8.58L29.25 0L27.94 0L23.58-6.94L23.53-6.94L23.53 0L22.41 0L22.41-8.58L23.81-8.58ZM41.30-8.58L38.06-3.47L38.06 0L36.89 0L36.89-3.47L33.66-8.58L35.02-8.58L37.45-4.45L39.94-8.58L41.30-8.58ZM48-3.19L48-8.58L49.17-8.58L49.17-3.05Q49.03 0.05 45.66 0.14L45.66 0.14Q42.52 0.05 42.38-2.86L42.38-2.86L42.38-8.58L43.55-8.58L43.55-3.19Q43.59-0.84 45.70-0.80L45.70-0.80Q48-0.84 48-3.19L48-3.19ZM57.89-8.58L54.66-3.47L54.66 0L53.48 0L53.48-3.47L50.25-8.58L51.61-8.58L54.05-4.45L56.53-8.58L57.89-8.58ZM59.11-8.58L60.28-8.58L60.28 0L59.11 0L59.11-8.58ZM67.78-3.89L63.56-3.89L63.56 0L62.39 0L62.39-8.58L68.34-8.58L68.34-7.59L63.56-7.59L63.56-4.92L67.78-4.92L67.78-3.89ZM70.83-1.03L75.98-1.03L75.98 0L69.66 0L69.66-8.58L75.89-8.58L75.89-7.59L70.83-7.59L70.83-4.92L75.52-4.92L75.52-3.89L70.83-3.89L70.83-1.03ZM78.89-8.58L83.20-1.64L83.20-8.58L84.33-8.58L84.33 0L83.02 0L78.66-6.94L78.61-6.94L78.61 0L77.48 0L77.48-8.58L78.89-8.58ZM92.53-3.61L89.91-3.61L89.91-4.59L93.66-4.59L93.66 0L92.91 0L92.63-1.08Q91.64 0.09 89.81 0.14L89.81 0.14Q88.08 0.14 87.14-0.75L87.14-0.75Q85.73-2.06 85.78-4.36L85.78-4.36Q86.11-8.63 89.86-8.81L89.86-8.81Q93.05-8.63 93.52-6L93.52-6L92.39-6Q91.92-7.78 89.81-7.83L89.81-7.83Q87.14-7.64 87-4.31L87-4.31Q87-0.75 89.86-0.75L89.86-0.75Q90.89-0.75 91.64-1.31L91.64-1.31Q92.58-2.06 92.53-3.61L92.53-3.61Z" transform="translate(-0.234375, 8.8125)"></path></g></g></g></g></g><defs v-gra="od"></defs></svg>